# xmcd CD database file
#
# Track frame offsets:
#	150
#	28666
#	73397
#	111120
#	184539
#
# Disc length: 3427 seconds
#
# Revision: 0
# Processed by: cddbd v1.5.2PL0 Copyright (c) Steve Scherf et al.
# Submitted via: CDex 1.70beta2
#
DISCID=410d6105
DTITLE=Rova - Orkestrova - An Alligator In Your Wallet
DYEAR=2004
DGENRE=Jazz
TTITLE0=A Lion In Your Bag
TTITLE1=A Zebra On Your Roof
TTITLE2=An Alligator In Your Wallet
TTITLE3=Survival (In Five Acts)
TTITLE4=Chuck
EXTD=YEAR: 2004
EXTT0=
EXTT1=
EXTT2=
EXTT3=
EXTT4=
PLAYORDER=
